<svg xmlns="http://www.w3.org/2000/svg" viewBox="0 0 100 100" width="100" height="100" role="img" aria-label="CréaComp">
<!-- CréaComp — six lames d'obturateur pour les rubriques 2 à 7 ; la première,
     S'informer, est l'ouverture elle-même, et porte le C. Contours vectorisés :
     aucune fonte n'est requise. Refabriqué par scripts/logo/construire.py. -->
<path fill="#454391" d="M51.07 3.01A47 47 0 0 1 90.16 25.58L83.93 52.19L70.13 22.60Z"/><path fill="#9c2c4a" d="M91.23 27.43A47 47 0 0 1 91.23 72.57L65.06 80.48L83.79 53.73Z"/><path fill="#a9551f" d="M90.16 74.42A47 47 0 0 1 51.07 96.99L31.14 78.29L63.67 81.13Z"/><path fill="#2a6b4b" d="M48.93 96.99A47 47 0 0 1 9.84 74.42L16.07 47.81L29.87 77.40Z"/><path fill="#14707f" d="M8.77 72.57A47 47 0 0 1 8.77 27.43L34.94 19.52L16.21 46.27Z"/><path fill="#7a5c15" d="M9.84 25.58A47 47 0 0 1 48.93 3.01L68.86 21.71L36.33 18.87Z"/><path fill="#1b5068" d="M64.31 25.55A26.94 26.94 0 1 0 64.31 74.45L64.31 61.23A15.94 15.94 0 1 1 64.31 38.77Z"/>
</svg>
